# xmcd CD database file
#
# Track frame offsets:
#	150
#	32279
#	59072
#	86073
#	113882
#	142621
#	171842
#	203361
#	232461
#	256585
#	276798
#	299482
#
# Disc length: 4296 seconds
#
# Revision: 0
# Processed by: cddbd v1.5.2PL0 Copyright (c) Steve Scherf et al.
# Submitted via: CDex 1.51
#
DISCID=a810c60c
DTITLE=Various Artist - Young Vips On Tour
DYEAR=1900
DGENRE=Jazz
TTITLE0=Dijkhuizen/Beets Brothers -  Lush Life
TTITLE1=Dijkhuizen/Beets Brothers -  One For Amos
TTITLE2=As Guests -  Mark The Questionable
TTITLE3=As Guests -  Chovendo Na Roseira
TTITLE4=Dimami - Wijs
TTITLE5=Dimami - View From Above
TTITLE6=RF&C - My Celtic Suiteheart
TTITLE7=RF&C - Le Deimier Baiser
TTITLE8=Harmen Fraanje Quintet - Utopia
TTITLE9=Harmen Fraanje Quintet - Oceania
TTITLE10=Franz Von Chossy Trio - The Kite Runner
TTITLE11=Franz Von Chossy Trio - November
EXTD=
EXTT0=
EXTT1=
EXTT2=
EXTT3=
EXTT4=
EXTT5=
EXTT6=
EXTT7=
EXTT8=
EXTT9=
EXTT10=
EXTT11=
PLAYORDER=
